<?xml version="1.0" encoding="UTF-8" standalone="no"?>
<!-- Generator: Adobe Illustrator 19.0.1, SVG Export Plug-In  -->

<svg
   xmlns:dc="http://purl.org/dc/elements/1.1/"
   xmlns:cc="http://creativecommons.org/ns#"
   xmlns:rdf="http://www.w3.org/1999/02/22-rdf-syntax-ns#"
   xmlns:svg="http://www.w3.org/2000/svg"
   xmlns="http://www.w3.org/2000/svg"
   xmlns:sodipodi="http://sodipodi.sourceforge.net/DTD/sodipodi-0.dtd"
   xmlns:inkscape="http://www.inkscape.org/namespaces/inkscape"
   version="1.1"
   x="0px"
   y="0px"
   width="89"
   height="89"
   viewBox="0 0 88.999997 89"
   xml:space="preserve"
   id="svg2"
   inkscape:version="0.91 r13725"
   sodipodi:docname="logo.svg"><sodipodi:namedview
     pagecolor="#ffffff"
     bordercolor="#666666"
     borderopacity="1"
     objecttolerance="10"
     gridtolerance="10"
     guidetolerance="10"
     inkscape:pageopacity="0"
     inkscape:pageshadow="2"
     inkscape:window-width="1271"
     inkscape:window-height="704"
     id="namedview118"
     showgrid="false"
     fit-margin-top="0"
     fit-margin-left="0"
     fit-margin-right="0"
     fit-margin-bottom="0"
     inkscape:zoom="0.75743047"
     inkscape:cx="-21.124051"
     inkscape:cy="18.25"
     inkscape:window-x="0"
     inkscape:window-y="0"
     inkscape:window-maximized="0"
     inkscape:current-layer="svg2" /><defs
     id="defs6" /><g
     id="g10"
     style="fill:#ffffff;fill-opacity:1"><path
       class="st0"
       d="m 27.9,20.6 33.3,0 0,11.7 -20.6,0 0,9 19.1,0 0,11.7 -19.1,0 0,15.5 -12.7,0 0,-47.9 z"
       id="path12"
       inkscape:connector-curvature="0"
       style="fill:#ffffff;fill-opacity:1" /></g><path
     class="st0"
     d="M 44.5,89 C 20,89 0,69 0,44.5 0,20 20,0 44.5,0 69,0 89,20 89,44.5 89,69 69,89 44.5,89 Z m 0,-82 C 23.8,7 7,23.8 7,44.5 7,65.2 23.8,82 44.5,82 65.2,82 82,65.2 82,44.5 82,23.8 65.2,7 44.5,7 Z"
     id="path116"
     inkscape:connector-curvature="0"
     style="fill:#ffffff;fill-opacity:1" /><metadata
     id="metadata4252"><rdf:RDF><cc:Work
         rdf:about=""><dc:title></dc:title></cc:Work></rdf:RDF></metadata></svg>