<?xml version="1.0" encoding="utf-8"?>
<!-- Generated by IcoMoon.io -->
<!DOCTYPE svg PUBLIC "-//W3C//DTD SVG 1.1//EN" "http://www.w3.org/Graphics/SVG/1.1/DTD/svg11.dtd">
<svg version="1.1" xmlns="http://www.w3.org/2000/svg" xmlns:xlink="http://www.w3.org/1999/xlink" width="1279" height="1024" viewBox="0 0 1279 1024" fill="#FFF">
<g id="icomoon-ignore">
</g>
<path d="M1032.14 5.308c-108.115 0-195.705 87.766-195.705 196.059 0 29.196 6.37 57.154 17.872 81.927l177.833 349.473 177.833-349.473c11.502-24.95 17.872-52.731 17.872-81.927 0-108.292-87.589-196.059-195.705-196.059v0zM1032.14 319.038c-64.763 0-117.494-52.731-117.494-117.671s52.554-117.671 117.494-117.671 117.494 52.731 117.494 117.671c-0.177 64.94-52.731 117.671-117.494 117.671v0zM1090.709 690.275l71.31 142.797-180.664 90.421-60.516-303.466 11.325-11.325-37.336-73.611-19.11 19.11-234.81-156.953-234.81 156.953-156.599-156.953-235.164 470.859 313.199 156.953 313.199-156.953 313.199 156.953 313.199-156.953-132.18-264.715-44.237 86.882zM299.927 923.493l-180.487-90.421 151.291-303.112 90.067 90.244-60.87 303.289zM601.447 799.983l-218.885 109.708 56.623-283.294 10.086-6.724 152.353-101.745v282.056zM679.835 799.983v-282.056l162.439 108.469 56.623 283.294-219.062-109.708z"></path>
</svg>
